<svg width="1138" height="996" viewBox="0 0 1138 996" fill="none" xmlns="http://www.w3.org/2000/svg">
<rect x="444.166" y="719.706" width="513.971" height="19.4445" transform="rotate(-60 444.166 719.706)" fill="black" stroke="black" stroke-width="10"/>
<rect x="314.853" y="720.557" width="627.41" height="12.963" transform="rotate(-60 314.853 720.557)" fill="black"/>
<path d="M27.9299 954.914L25.4303 959.244L29.7602 961.744L57.8259 977.947L62.1511 980.445L64.6532 976.122L596.59 57.2089L598.038 54.7082L596.594 52.2053L577.148 18.5012L572.819 10.9966L568.487 18.5002L27.9299 954.914Z" fill="black" stroke="black" stroke-width="10"/>
<rect x="579.081" y="509.652" width="516.338" height="19.4445" transform="rotate(60 579.081 509.652)" fill="black" stroke="black" stroke-width="10"/>
<rect x="645.397" y="392.39" width="646.855" height="12.963" transform="rotate(60 645.397 392.39)" fill="black"/>
<path d="M590.32 41.2107L587.831 36.8403L583.475 39.3551L555.409 55.5588L551.078 58.0594L553.58 62.3899L1086.36 984.709L1087.8 987.208L1090.69 987.208L1120.5 987.208L1129.11 987.208L1124.85 979.733L590.32 41.2107Z" fill="black" stroke="black" stroke-width="10"/>
<rect x="692" y="733" width="515" height="19" transform="rotate(-180 692 733)" fill="black" stroke="black" stroke-width="10"/>
<rect x="765.966" y="852.578" width="642.966" height="12.963" transform="rotate(-180 765.966 852.578)" fill="black"/>
<path d="M1098 987L1103 987L1103 982L1103 950L1103 945L1098 945L36.5723 945L33.6931 945L32.2478 947.49L13.6755 979.49L9.31689 987L18 987L1098 987Z" fill="black" stroke="black" stroke-width="10"/>
</svg>
