<?xml version="1.0" standalone="no"?>
<!DOCTYPE svg PUBLIC "-//W3C//DTD SVG 20010904//EN"
 "http://www.w3.org/TR/2001/REC-SVG-20010904/DTD/svg10.dtd">
<svg version="1.0" xmlns="http://www.w3.org/2000/svg"
 width="1143.000000pt" height="1143.000000pt" viewBox="0 0 1143.000000 1143.000000"
 preserveAspectRatio="xMidYMid meet">
<metadata>
Created by potrace 1.14, written by Peter Selinger 2001-2017
</metadata>
<g transform="translate(0.000000,1143.000000) scale(0.100000,-0.100000)"
fill="#000000" stroke="none">
<path d="M201 10012 c-151 -2 -191 -5 -183 -15 9 -11 163 -275 251 -430 94
-166 117 -207 136 -237 19 -30 102 -173 164 -283 10 -18 51 -88 91 -157 40
-69 84 -145 98 -170 14 -25 81 -142 150 -260 69 -118 136 -235 150 -260 14
-25 28 -49 32 -55 4 -5 19 -30 32 -55 14 -25 67 -117 118 -205 51 -88 100
-173 110 -190 9 -16 68 -118 130 -225 62 -107 207 -359 322 -560 116 -201 223
-385 238 -410 15 -25 39 -65 52 -90 14 -25 82 -143 152 -263 70 -120 138 -239
153 -265 14 -26 65 -114 113 -197 119 -204 239 -412 260 -449 29 -52 319 -554
392 -678 37 -64 68 -121 68 -127 0 -6 4 -11 9 -11 5 0 11 -8 14 -17 4 -10 18
-38 33 -63 15 -25 35 -58 44 -75 41 -71 242 -419 295 -510 83 -144 89 -153
130 -225 21 -36 49 -85 63 -110 13 -25 28 -49 32 -55 6 -9 161 -276 223 -385
42 -74 144 -251 222 -385 45 -77 93 -160 107 -185 14 -25 67 -117 118 -205
131 -227 131 -226 155 -270 13 -22 47 -80 76 -130 28 -49 62 -108 74 -130 12
-22 42 -74 67 -115 25 -41 56 -95 70 -120 14 -25 83 -144 153 -265 70 -121
141 -245 158 -275 16 -30 38 -67 49 -82 10 -14 18 -28 18 -31 0 -3 51 -92 113
-199 62 -106 148 -255 191 -331 43 -75 82 -139 86 -142 7 -4 57 77 187 302 48
84 151 262 174 303 34 60 575 996 921 1595 125 216 226 391 288 500 53 93 192
332 199 345 6 8 54 92 108 185 54 94 103 179 110 190 7 11 15 27 19 35 4 8 18
32 31 53 13 21 33 55 45 75 50 90 223 391 245 424 12 21 23 39 23 42 0 3 44
80 90 156 8 14 95 165 161 280 63 110 505 875 545 943 19 32 34 63 34 68 0 5
5 9 10 9 6 0 10 5 10 10 0 6 11 27 23 48 13 20 35 57 49 82 23 41 186 325 232
403 42 73 280 485 301 522 13 22 46 81 75 130 29 50 63 108 75 130 13 22 120
208 239 414 119 205 216 377 216 382 0 5 5 9 10 9 6 0 10 4 10 8 0 8 67 128
208 370 40 68 72 127 72 132 0 6 3 10 8 10 4 0 13 15 21 33 8 17 20 39 26 47
7 8 25 38 39 65 15 28 32 59 39 70 27 45 59 98 76 128 24 42 193 336 266 462
32 55 65 114 73 130 9 17 18 32 21 35 3 3 14 21 25 40 10 19 50 89 89 155 39
66 90 154 114 195 24 41 48 82 53 90 6 8 16 26 22 40 7 14 15 27 18 30 3 3 10
14 16 25 6 11 25 45 42 77 l32 56 -267 1 c-148 1 -585 4 -973 6 -388 2 -1155
7 -1705 10 -1418 8 -2313 13 -3455 20 -1008 6 -1295 8 -3380 20 -641 4 -1183
8 -1205 8 -22 1 -127 1 -234 -1z m1787 -695 c56 -96 110 -190 120 -208 11 -19
59 -104 109 -189 49 -85 169 -294 267 -465 98 -170 187 -322 197 -337 10 -15
19 -29 19 -31 0 -2 39 -71 86 -153 48 -82 94 -162 104 -179 9 -16 51 -88 92
-160 42 -71 126 -218 188 -325 62 -107 120 -208 130 -225 63 -110 177 -307
195 -340 13 -22 62 -107 110 -190 95 -163 114 -196 146 -252 12 -21 97 -168
189 -328 309 -533 428 -740 455 -790 16 -28 36 -62 46 -77 11 -14 19 -29 19
-32 0 -4 11 -23 24 -44 26 -41 271 -465 319 -552 17 -30 43 -75 58 -100 24
-39 26 -48 15 -65 -7 -11 -24 -40 -38 -65 -14 -25 -74 -128 -134 -230 -59
-102 -112 -194 -118 -205 -39 -72 -180 -314 -181 -312 -4 5 -406 701 -475 822
-9 17 -52 91 -95 165 -43 74 -89 155 -103 180 -14 25 -43 73 -64 108 -21 34
-38 64 -38 67 0 3 -13 26 -29 52 -16 27 -40 67 -53 89 -12 23 -106 186 -208
363 -223 388 -198 345 -237 411 -17 30 -40 71 -50 90 -11 19 -67 116 -125 215
-57 99 -116 200 -130 225 -31 55 -20 35 -273 475 -114 198 -219 380 -232 405
-14 25 -40 70 -58 100 -27 44 -185 319 -508 880 -11 19 -30 53 -42 75 -13 22
-46 81 -75 130 -79 136 -76 130 -184 320 -31 55 -61 107 -66 115 -10 17 -63
108 -90 155 -10 17 -59 102 -110 190 -180 313 -220 383 -220 387 0 3 213 6
474 7 l473 2 101 -174z m1273 -75 c78 -136 164 -283 189 -327 26 -44 125 -215
220 -380 335 -581 433 -750 448 -775 9 -14 17 -27 17 -30 0 -3 10 -21 21 -40
23 -37 294 -505 547 -945 82 -143 187 -324 233 -403 46 -79 84 -145 84 -148 0
-3 15 -28 33 -57 18 -29 47 -77 64 -107 16 -30 63 -111 103 -180 74 -127 94
-161 131 -227 12 -20 50 -88 86 -150 l65 -114 -178 -307 c-97 -169 -218 -378
-268 -464 -50 -86 -93 -155 -97 -152 -4 2 -22 30 -40 62 -17 31 -40 72 -51 90
-10 17 -28 49 -39 70 -12 20 -52 89 -89 152 -37 63 -80 138 -96 165 -15 28
-91 160 -169 295 -330 569 -355 612 -384 663 -10 17 -75 131 -145 251 -69 120
-126 221 -126 224 0 3 -6 13 -14 21 -7 9 -27 41 -43 71 -17 30 -39 71 -50 90
-11 19 -62 107 -113 195 -51 88 -103 178 -115 200 -13 22 -46 81 -75 130 -62
106 -154 265 -310 535 -149 259 -147 254 -171 298 -12 20 -45 78 -74 127 -29
50 -62 106 -73 125 -11 19 -35 62 -54 95 -90 156 -303 524 -320 553 -10 18
-53 93 -95 165 -42 73 -87 152 -101 177 -14 25 -33 57 -43 72 -11 14 -19 29
-19 32 0 4 -10 23 -23 44 -13 20 -38 63 -56 94 l-32 57 540 0 539 0 143 -247z
m7259 191 c-52 -94 -82 -146 -105 -183 -12 -19 -91 -155 -175 -301 l-153 -267
-3079 0 -3079 0 -26 41 c-27 43 -53 87 -268 462 -75 132 -146 254 -157 272
l-19 32 3546 1 3546 0 -31 -57z m-517 -883 c3 -3 -121 -224 -275 -491 l-281
-486 -2441 0 -2442 -1 -39 71 c-22 38 -50 88 -63 111 -12 22 -38 66 -56 96
-18 30 -95 163 -171 295 -76 132 -160 278 -186 323 -27 46 -49 85 -49 85 0 5
6000 1 6003 -3z m-3412 -1304 c-56 -93 -121 -207 -121 -212 0 -3 -8 -17 -19
-32 -16 -23 -66 -109 -280 -482 -103 -180 -153 -267 -162 -280 -5 -8 -54 -94
-109 -190 -55 -96 -104 -182 -109 -190 -6 -8 -21 -36 -35 -61 -14 -26 -38 -68
-55 -94 l-29 -46 -38 63 c-20 35 -48 83 -62 108 -14 25 -44 78 -68 117 -24 40
-44 75 -44 78 0 2 -18 35 -40 72 -22 38 -45 75 -50 83 -18 32 -196 339 -243
420 -26 47 -52 92 -57 100 -29 46 -200 343 -200 346 0 2 -18 33 -40 69 -22 36
-40 68 -40 71 0 3 -11 22 -25 42 -14 20 -25 40 -25 44 0 4 421 7 935 6 l935 0
-19 -32z m1514 16 c-3 -8 -76 -137 -162 -286 -195 -339 -458 -794 -573 -991
-47 -82 -122 -212 -166 -288 -43 -76 -87 -152 -98 -170 -56 -98 -141 -246
-156 -272 -38 -68 -397 -687 -449 -775 -30 -52 -60 -104 -67 -115 -6 -11 -30
-54 -53 -95 -24 -41 -52 -91 -63 -110 -32 -56 -118 -204 -128 -220 -5 -8 -46
-80 -92 -159 -46 -80 -94 -163 -107 -185 -13 -23 -33 -57 -44 -76 -10 -19
-145 -253 -300 -520 -154 -267 -292 -506 -306 -531 -111 -196 -177 -308 -181
-309 -3 0 -22 28 -42 63 -260 450 -360 623 -396 687 -14 25 -52 89 -84 143
-32 55 -58 106 -58 115 0 8 35 77 79 151 99 171 666 1152 696 1206 13 22 46
81 75 130 29 50 63 108 75 130 13 22 46 81 75 130 82 140 269 465 298 514 13
25 38 68 54 95 15 28 33 58 39 66 5 8 15 27 22 43 6 15 15 27 19 27 4 0 8 4 8
9 0 8 90 168 130 231 5 8 18 31 28 50 11 19 144 251 297 515 153 264 290 501
304 526 14 25 57 100 95 166 l69 121 584 0 c518 -1 583 -3 578 -16z m1165 10
c0 -3 -20 -39 -44 -81 -24 -42 -53 -92 -64 -111 -10 -19 -43 -75 -72 -125 -29
-49 -62 -108 -75 -130 -12 -22 -55 -96 -95 -165 -40 -69 -81 -141 -92 -160
-11 -19 -179 -309 -373 -645 -194 -335 -411 -711 -482 -835 -122 -211 -646
-1119 -811 -1404 -41 -72 -82 -144 -92 -160 -10 -17 -65 -114 -124 -215 -58
-101 -106 -188 -106 -193 0 -4 -4 -8 -10 -8 -5 0 -10 -4 -10 -9 0 -4 -48 -91
-106 -192 -59 -101 -192 -332 -297 -514 -104 -181 -229 -397 -277 -480 -48
-82 -97 -166 -107 -185 -11 -19 -71 -123 -132 -230 -62 -107 -124 -215 -138
-239 l-25 -43 -23 38 c-47 82 -209 361 -230 399 -13 22 -75 129 -137 239
l-115 198 122 212 c67 116 213 368 324 560 110 192 201 351 201 354 0 3 6 13
14 21 7 9 26 39 41 66 15 28 79 140 143 250 393 682 488 847 522 905 21 36 86
148 144 250 58 102 110 192 115 200 8 12 101 173 310 534 228 395 368 639 386
671 12 22 50 87 83 143 34 57 62 105 62 106 0 2 37 66 81 142 45 76 90 154
101 172 24 43 77 136 170 297 159 276 188 326 203 349 l15 23 500 0 c275 0
500 -2 500 -5z"/>
</g>
</svg>
